<svg width="27" height="26" viewBox="0 0 27 26" fill="none" xmlns="http://www.w3.org/2000/svg">
<path d="M13.4989 7.99219C12.1192 7.99219 10.7961 8.51996 9.82051 9.45939C8.84494 10.3988 8.29688 11.673 8.29688 13.0015C8.29688 14.3301 8.84494 15.6042 9.82051 16.5437C10.7961 17.4831 12.1192 18.0109 13.4989 18.0109C14.8785 18.0109 16.2017 17.4831 17.1772 16.5437C18.1528 15.6042 18.7009 14.3301 18.7009 13.0015C18.7009 11.673 18.1528 10.3988 17.1772 9.45939C16.2017 8.51996 14.8785 7.99219 13.4989 7.99219ZM13.4989 16.2548C12.6026 16.2548 11.743 15.9119 11.1092 15.3016C10.4754 14.6913 10.1194 13.8635 10.1194 13.0004C10.1194 12.1373 10.4754 11.3096 11.1092 10.6993C11.743 10.089 12.6026 9.7461 13.4989 9.7461C14.3952 9.7461 15.2548 10.089 15.8885 10.6993C16.5223 11.3096 16.8784 12.1373 16.8784 13.0004C16.8784 13.8635 16.5223 14.6913 15.8885 15.3016C15.2548 15.9119 14.3952 16.2548 13.4989 16.2548Z" fill="url(#paint0_linear_80_201)"/>
<path d="M18.9081 8.97629C19.5778 8.97629 20.1208 8.45343 20.1208 7.80846C20.1208 7.16348 19.5778 6.64062 18.9081 6.64062C18.2383 6.64062 17.6953 7.16348 17.6953 7.80846C17.6953 8.45343 18.2383 8.97629 18.9081 8.97629Z" fill="url(#paint1_linear_80_201)"/>
<path d="M23.0993 6.62069C22.8389 5.97305 22.4409 5.38492 21.9308 4.89392C21.4208 4.40293 20.8098 4.0199 20.1372 3.76936C19.3501 3.48483 18.5185 3.33098 17.678 3.31436C16.5946 3.26886 16.2515 3.25586 13.5042 3.25586C10.757 3.25586 10.4048 3.25586 9.33045 3.31436C8.49052 3.33013 7.65955 3.48401 6.87345 3.76936C6.20063 4.01961 5.58956 4.40254 5.07945 4.89356C4.56934 5.38459 4.17146 5.97289 3.91133 6.62069C3.6158 7.37861 3.45639 8.17943 3.43995 8.98886C3.39158 10.031 3.37695 10.3614 3.37695 13.008C3.37695 15.6535 3.37695 15.9904 3.43995 17.0272C3.45683 17.8375 3.61545 18.637 3.91133 19.3964C4.17219 20.044 4.57046 20.6321 5.08069 21.123C5.59093 21.614 6.2019 21.9971 6.87458 22.2478C7.65919 22.5437 8.4905 22.7086 9.3327 22.7353C10.4161 22.7808 10.7592 22.7949 13.5065 22.7949C16.2537 22.7949 16.6058 22.7949 17.6802 22.7353C18.5207 22.7188 19.3522 22.5653 20.1395 22.2814C20.8119 22.0302 21.4227 21.6469 21.9327 21.1557C22.4427 20.6646 22.8408 20.0765 23.1016 19.4289C23.3975 18.6706 23.5561 17.8711 23.573 17.0608C23.6213 16.0186 23.636 15.6882 23.636 13.0416C23.636 10.395 23.636 10.0592 23.573 9.02244C23.5599 8.20157 23.3996 7.38904 23.0993 6.62069ZM21.7291 16.947C21.7218 17.5714 21.6035 18.1899 21.3792 18.7757C21.2103 19.197 20.9516 19.5795 20.6199 19.8988C20.2882 20.218 19.8908 20.4668 19.4532 20.6293C18.8516 20.8443 18.2161 20.9582 17.5745 20.9662C16.5057 21.0139 16.2042 21.0258 13.4637 21.0258C10.721 21.0258 10.4408 21.0258 9.35183 20.9662C8.7105 20.9586 8.07532 20.8447 7.4742 20.6293C7.0351 20.4678 6.63608 20.2194 6.30295 19.9001C5.96983 19.5809 5.71002 19.1978 5.54033 18.7757C5.31921 18.1962 5.20093 17.5849 5.19045 16.9676C5.14208 15.9384 5.13083 15.6481 5.13083 13.0091C5.13083 10.369 5.13083 10.0993 5.19045 9.04953C5.19772 8.42555 5.31607 7.8074 5.54033 7.22194C5.88345 6.36719 6.58658 5.69444 7.4742 5.36728C8.07562 5.15293 8.71061 5.03899 9.35183 5.03036C10.4217 4.98378 10.7221 4.97078 13.4637 4.97078C16.2053 4.97078 16.4866 4.97078 17.5745 5.03036C18.2162 5.03779 18.8517 5.15177 19.4532 5.36728C19.8907 5.53007 20.2881 5.77916 20.6198 6.09856C20.9515 6.41796 21.2101 6.8006 21.3792 7.22194C21.6003 7.80147 21.7186 8.4127 21.7291 9.03003C21.7775 10.0603 21.7898 10.3495 21.7898 12.9896C21.7898 15.6286 21.7898 15.9124 21.7415 16.9481H21.7291V16.947Z" fill="url(#paint2_linear_80_201)"/>
<defs>
<linearGradient id="paint0_linear_80_201" x1="8.49293" y1="12.8949" x2="18.7009" y2="12.8949" gradientUnits="userSpaceOnUse">
<stop stop-color="#C1AD64"/>
<stop offset="0.34375" stop-color="#A98343"/>
<stop offset="0.536458" stop-color="#A27C3D"/>
<stop offset="0.875" stop-color="#C4B067"/>
</linearGradient>
<linearGradient id="paint1_linear_80_201" x1="17.741" y1="7.78361" x2="20.1208" y2="7.78361" gradientUnits="userSpaceOnUse">
<stop stop-color="#C1AD64"/>
<stop offset="0.34375" stop-color="#A98343"/>
<stop offset="0.536458" stop-color="#A27C3D"/>
<stop offset="0.875" stop-color="#C4B067"/>
</linearGradient>
<linearGradient id="paint2_linear_80_201" x1="3.75872" y1="12.8175" x2="23.636" y2="12.8175" gradientUnits="userSpaceOnUse">
<stop stop-color="#C1AD64"/>
<stop offset="0.34375" stop-color="#A98343"/>
<stop offset="0.536458" stop-color="#A27C3D"/>
<stop offset="0.875" stop-color="#C4B067"/>
</linearGradient>
</defs>
</svg>
